<svg xmlns="http://www.w3.org/2000/svg" viewBox="0 0 17.1436 17.1436"><defs><style>.cls-1{fill:#f2f2f2;}</style></defs><g id="Capa_2" data-name="Capa 2"><g id="Capa_1-2" data-name="Capa 1"><path class="cls-1" d="M13.1104,3.061a1.00505,1.00505,0,1,0,1.0051,1.005A1.00506,1.00506,0,0,0,13.1104,3.061Z"/><path class="cls-1" d="M8.6422,4.3499a4.2219,4.2219,0,1,0,4.2219,4.2219A4.22672,4.22672,0,0,0,8.6422,4.3499Zm0,6.9263a2.7044,2.7044,0,1,1,2.7043-2.7044A2.70743,2.70743,0,0,1,8.6422,11.2762Z"/><path class="cls-1" d="M11.9939,17.1436H5.1494A5.15522,5.15522,0,0,1,0,11.9942V5.1494A5.15515,5.15515,0,0,1,5.1494,0h6.8445a5.15541,5.15541,0,0,1,5.1497,5.1494v6.8448A5.15547,5.15547,0,0,1,11.9939,17.1436ZM5.1494,1.6129A3.54038,3.54038,0,0,0,1.6128,5.1494v6.8448a3.54046,3.54046,0,0,0,3.5366,3.5366h6.8445a3.54063,3.54063,0,0,0,3.5368-3.5366V5.1494a3.54055,3.54055,0,0,0-3.5368-3.5365Z"/></g></g></svg>