<svg xmlns="http://www.w3.org/2000/svg" viewBox="0 0 29.2427 29.2428"><defs><style>.cls-1{fill:#fff;}</style></defs><g id="Capa_2" data-name="Capa 2"><g id="Capa_1-2" data-name="Capa 1"><path d="M7.6493.00005h13.944a7.6494,7.6494,0,0,1,7.6494,7.6494v13.944a7.6493,7.6493,0,0,1-7.6493,7.6493H7.6494A7.6494,7.6494,0,0,1,0,21.59335V7.64935A7.6493,7.6493,0,0,1,7.6493.00005Z" transform="translate(29.24275 0.00005) rotate(90)"/><path class="cls-1" d="M19.1599,9.1106a1.00505,1.00505,0,1,0,1.0051,1.005A1.00506,1.00506,0,0,0,19.1599,9.1106Z"/><path class="cls-1" d="M14.6917,10.3995a4.2219,4.2219,0,1,0,4.2219,4.2219A4.22672,4.22672,0,0,0,14.6917,10.3995Zm0,6.9263a2.7044,2.7044,0,1,1,2.7043-2.7044A2.70743,2.70743,0,0,1,14.6917,17.3258Z"/><path class="cls-1" d="M18.0434,23.1932H11.1989a5.15522,5.15522,0,0,1-5.1494-5.1494V11.199a5.15515,5.15515,0,0,1,5.1494-5.1494h6.8445a5.15541,5.15541,0,0,1,5.1497,5.1494v6.8448A5.15547,5.15547,0,0,1,18.0434,23.1932ZM11.1989,7.6625A3.54038,3.54038,0,0,0,7.6623,11.199v6.8448a3.54046,3.54046,0,0,0,3.5366,3.5366h6.8445a3.54063,3.54063,0,0,0,3.5368-3.5366V11.199a3.54055,3.54055,0,0,0-3.5368-3.5365Z"/></g></g></svg>