<svg xmlns="http://www.w3.org/2000/svg" viewBox="0 0 29.2427 29.2428"><defs><style>.cls-1{fill:#fff;}</style></defs><g id="Capa_2" data-name="Capa 2"><g id="Capa_1-2" data-name="Capa 1"><path d="M7.64931,0h13.944a7.6494,7.6494,0,0,1,7.6494,7.6494V21.5934a7.6493,7.6493,0,0,1-7.6493,7.6493H7.6492A7.64924,7.64924,0,0,1,0,21.59346V7.6494A7.64935,7.64935,0,0,1,7.64931,0Z" transform="translate(29.2427 0.00005) rotate(90)"/><path class="cls-1" d="M8.4895,11.8983h2.8319v9.0969H8.4895ZM9.9059,7.3778A1.6395,1.6395,0,1,1,8.2643,9.0161,1.63951,1.63951,0,0,1,9.9059,7.3778"/><path class="cls-1" d="M13.0956,11.8983h2.7123v1.2443h.0371a2.97279,2.97279,0,0,1,2.6776-1.4695c2.8628,0,3.3907,1.8828,3.3907,4.3328v4.9893H19.0877V16.5725c0-1.0558-.0206-2.4124-1.4696-2.4124-1.4719,0-1.6964,1.1491-1.6964,2.3353v4.4998H13.0956Z"/></g></g></svg>