<svg id="Capa_4" data-name="Capa 4" xmlns="http://www.w3.org/2000/svg" viewBox="0 0 490.44833 253.58483"><defs><style>.cls-1{fill:#a0aa55;}.cls-2,.cls-3{fill:#fff;}.cls-2{opacity:0.6;}</style></defs><path class="cls-1" d="M618.78017,566.53271c1.1779,9.393,5.64556,19.99765,18.22373,26.85833,17.71092,9.66039,32.60378,4.29347,41.94-1.856a49.422,49.422,0,0,0,13.54583-13.67251l78.37941-115.5767L854.6967,585.40806A31.97358,31.97358,0,0,0,870.721,597.75324a42.678,42.678,0,0,0,35.39354-2.98214c16.13613-8.96463,18.29651-24.91746,17.82953-34.99681a29.794,29.794,0,0,0-4.65364-14.51787L803.99049,362.922c-7.73316-11.17049-20.81672-14.85074-29.59031-16.03774-6.42858-.86978-18.23653,1.13949-24.23182,3.61725-15.10108,6.24124-33.1213,38.64153-33.1213,38.64153L625.29365,538.745A42.5473,42.5473,0,0,0,618.78017,566.53271ZM639.764,554.74952,752.89613,376.97a17.90381,17.90381,0,0,1,10.22507-7.65937c5.79043-1.62989,13.876-1.83373,20.16847,6.03184,11.04043,13.80055,113.16446,176.647,113.16446,176.647s7.35513,12.42453-5.52021,22.08087q-.16578.12434-.33019.24343a15.218,15.218,0,0,1-21.58761-4.24393l-99.527-153.3257L676.17575,562.20353c-.31874.4968-.61658,1.00674-.90364,1.52224-2.05593,3.68716-12.44138,20.49782-27.22778,13.10462C631.48368,568.55006,639.764,554.74952,639.764,554.74952Z" transform="translate(-433.55167 -346.67792)"/><path class="cls-2" d="M552.53756,566.53271c1.1779,9.393,5.64555,19.99765,18.22372,26.85833,17.71093,9.66039,32.60379,4.29347,41.94-1.856a49.42186,49.42186,0,0,0,13.54582-13.67251l78.37942-115.5767,83.82752,123.12219a31.9735,31.9735,0,0,0,16.02427,12.34518,42.678,42.678,0,0,0,35.39354-2.98214c16.13613-8.96463,18.2965-24.91746,17.82952-34.99681a29.79388,29.79388,0,0,0-4.65364-14.51787L737.74787,362.922c-7.73315-11.17049-20.81672-14.85074-29.59031-16.03774-6.42857-.86978-18.23653,1.13949-24.23181,3.61725-15.10109,6.24124-33.12131,38.64153-33.12131,38.64153L559.051,538.745A42.5473,42.5473,0,0,0,552.53756,566.53271Zm20.98383-11.78319L686.65351,376.97a17.90384,17.90384,0,0,1,10.22507-7.65937c5.79044-1.62989,13.876-1.83373,20.16848,6.03184,11.04043,13.80055,113.16446,176.647,113.16446,176.647s7.35512,12.42453-5.52022,22.08087q-.16576.12434-.33019.24343a15.218,15.218,0,0,1-21.58761-4.24393l-99.527-153.3257L609.93313,562.20353c-.31873.4968-.61657,1.00674-.90364,1.52224-2.05593,3.68716-12.44138,20.49782-27.22777,13.10462C565.24107,568.55006,573.52139,554.74952,573.52139,554.74952Z" transform="translate(-433.55167 -346.67792)"/><path class="cls-3" d="M738.7715,380.408c-1.1779-9.393-5.64555-19.99765-18.22373-26.85833-17.71092-9.66038-32.60378-4.29347-41.94,1.856A49.422,49.422,0,0,0,665.0619,369.0781L586.68249,484.6548,502.855,361.53262a31.9736,31.9736,0,0,0-16.02427-12.34519,42.678,42.678,0,0,0-35.39354,2.98214c-16.13613,8.96463-18.29651,24.91747-17.82953,34.99682a29.79382,29.79382,0,0,0,4.65365,14.51786L553.56119,584.01872c7.73315,11.17049,20.81672,14.85075,29.5903,16.03774,6.42858.86978,18.23653-1.13949,24.23182-3.61725,15.10108-6.24124,33.12131-38.64152,33.12131-38.64152l91.7534-149.602A42.54733,42.54733,0,0,0,738.7715,380.408Zm-20.98384,11.78319L604.65554,569.9707a17.90377,17.90377,0,0,1-10.22507,7.65937c-5.79043,1.62989-13.876,1.83373-20.16847-6.03184-11.04043-13.80054-113.16446-176.647-113.16446-176.647s-7.35513-12.42453,5.52022-22.08087q.16577-.12432.33018-.24343a15.218,15.218,0,0,1,21.58761,4.24394l99.527,153.3257,93.31338-145.45946c.31873-.4968.61657-1.00674.90363-1.52224,2.05593-3.68716,12.44138-20.49782,27.22778-13.10462C726.068,378.39061,717.78766,392.19115,717.78766,392.19115Z" transform="translate(-433.55167 -346.67792)"/></svg>